# xmcd
#
# Track frame offsets: 
#        150
#        13112
#        24843
#        35866
#        55281
#        69285
#        83219
#        97757
#        110903
#        131787
#
# Disc length: 1943 seconds
#
# Revision: 0
# Processed by: cddbd v1.5.2PL0 Copyright (c) Steve Scherf et al.
# Submitted via: ExactAudioCopy v0.99pb5
#
DISCID=8107950a
DTITLE=Dick Damron - Farewell To Arms
DYEAR=2008
DGENRE=Country
TTITLE0=All About Love
TTITLE1=Baby That's All
TTITLE2=Dollars
TTITLE3=Without You
TTITLE4=I Stopped Believing In You
TTITLE5=It's Over When It's Over
TTITLE6=You and Me and Charlie Pride
TTITLE7=You'd Still Be Here Today
TTITLE8=Farewell To Arms
TTITLE9=Vanishing Point
EXTD=
EXTT0=
EXTT1=
EXTT2=
EXTT3=
EXTT4=
EXTT5=
EXTT6=
EXTT7=
EXTT8=
EXTT9=
PLAYORDER=
